<svg xmlns="http://www.w3.org/2000/svg" xmlns:xlink="http://www.w3.org/1999/xlink" width="16" height="16" preserveAspectRatio="xMidYMid meet" viewBox="0 0 16 16" style="-ms-transform: rotate(360deg); -webkit-transform: rotate(360deg); transform: rotate(360deg);"><g fill="none"><path d="M3 3a2 2 0 0 0-2 2v1h14V5a2 2 0 0 0-2-2H3z" fill="white"/><path d="M1 11V7h14v4a2 2 0 0 1-2 2H3a2 2 0 0 1-2-2zm9.5-1a.5.5 0 0 0 0 1h2a.5.5 0 0 0 0-1h-2z" fill="white"/></g><rect x="0" y="0" width="16" height="16" fill="rgba(0, 0, 0, 0)" /></svg>